<svg version="1.1" id="Layer_1" xmlns="http://www.w3.org/2000/svg" xmlns:xlink="http://www.w3.org/1999/xlink" x="0px" y="0px"
	 width="100%" viewBox="0 0 464 416" enable-background="new 0 0 464 416" xml:space="preserve">
<path fill="#000000" opacity="1.000000" stroke="none" 
	d="
M312.399994,417.000000 
	C315.390778,411.866852 318.873077,406.810303 322.053619,401.520630 
	C328.246643,391.220795 330.195312,379.853027 331.630554,368.272614 
	C333.122559,356.234283 334.455139,344.174835 336.097076,332.157379 
	C336.519867,329.062775 336.453400,325.931000 337.380920,322.827789 
	C338.335693,319.633423 336.249603,317.440033 333.253418,316.375427 
	C320.475647,311.835144 308.669403,305.312531 296.957825,298.607117 
	C294.676605,297.300964 292.602173,295.633606 290.304138,294.044189 
	C290.089081,294.988800 289.886292,295.879364 289.499023,297.580170 
	C285.124939,293.727570 286.167877,288.029572 283.440399,283.851044 
	C280.112244,285.968353 280.789673,290.481232 277.702759,292.544983 
	C277.056610,291.073303 277.713776,289.817444 278.159546,288.663116 
	C280.563629,282.437378 279.693604,276.730438 276.324982,271.001984 
	C272.353851,264.248993 269.743805,257.151031 273.202972,249.167572 
	C275.207764,244.540695 278.617401,241.188995 282.451477,238.252731 
	C285.571503,235.863281 287.507080,232.979523 287.676483,229.081757 
	C287.837799,225.370316 290.444794,222.714401 291.548615,219.423889 
	C292.183746,217.530563 292.895142,215.659515 293.445862,213.742157 
	C293.953644,211.974213 293.481079,210.385071 291.920227,209.342316 
	C289.936768,208.017212 288.890778,209.699585 287.753998,210.848190 
	C283.667419,214.977341 280.075775,219.543243 275.163635,222.912659 
	C271.778076,225.234894 269.300354,226.828720 264.553650,225.546432 
	C257.079651,223.527374 249.091278,223.462463 241.346680,222.383606 
	C228.676956,220.618622 216.288101,217.177872 203.522705,215.943542 
	C203.134659,215.906021 202.790787,215.411499 201.589355,214.483749 
	C210.023682,214.507874 217.613617,214.530426 224.823486,216.556900 
	C237.067810,219.998413 249.658707,220.880417 262.140045,222.536987 
	C270.353943,223.627151 276.558533,219.372070 281.674957,213.447266 
	C284.937897,209.668793 287.892822,205.625854 291.053436,201.756668 
	C292.054382,200.531342 292.785126,198.798782 294.763214,198.973312 
	C296.227783,199.519287 296.081909,200.805740 296.438019,201.889404 
	C297.899933,206.337952 302.761108,208.793747 306.722931,207.170731 
	C310.140869,205.770538 312.051117,199.357773 310.153442,195.733673 
	C309.497528,194.481033 308.372559,194.403717 307.175659,194.369476 
	C305.693665,194.327087 304.012970,194.545074 303.338257,192.756348 
	C302.557281,190.685822 303.893219,189.134018 305.169342,187.920532 
	C306.633270,186.528488 308.657806,185.562637 307.165771,183.108932 
	C305.738281,180.761383 304.035248,181.828461 302.010040,182.501480 
	C298.878052,183.542313 296.459961,180.733276 297.688934,177.533600 
	C302.434204,165.179352 302.910889,151.931839 305.813080,139.191742 
	C307.091309,133.580521 304.803070,128.357025 302.016846,123.394142 
	C301.034576,126.989159 301.950287,130.792755 299.437683,134.388794 
	C298.046265,128.995590 299.782257,123.816795 298.819183,118.730301 
	C296.779907,107.959610 293.767181,97.902443 285.371826,89.982597 
	C280.789520,85.659821 278.006836,80.069084 276.336304,73.641487 
	C275.004974,68.519051 271.683014,63.723640 265.576233,62.383556 
	C264.614777,62.172569 263.275787,62.197338 262.780670,61.578022 
	C258.400238,56.098671 252.880997,58.265076 247.588058,59.202908 
	C245.589920,59.556946 243.756927,60.217934 242.059341,58.396996 
	C240.962326,57.220299 239.370972,57.103634 237.846603,57.342201 
	C226.941635,59.048893 216.720215,62.408871 208.973938,70.747261 
	C204.560410,75.498138 200.579529,80.658043 196.528214,85.733040 
	C195.568741,86.934929 193.981445,88.397079 195.285049,90.141502 
	C196.392807,91.623833 198.160355,91.295540 199.889679,91.104996 
	C202.352844,90.833565 204.885193,90.719803 207.344193,90.969673 
	C214.404938,91.687134 216.392471,94.290291 215.717087,102.246361 
	C209.996704,102.749504 204.377609,101.284729 198.746460,100.417229 
	C193.171616,99.558388 188.407410,100.766396 184.988617,105.405739 
	C181.512558,110.122818 180.189255,115.342003 181.770462,121.182266 
	C186.652847,121.070503 185.673172,116.252724 188.905197,114.091293 
	C187.088226,118.864380 189.196777,120.169495 193.077728,120.155296 
	C196.395126,120.143158 199.765915,120.096909 203.021011,120.629021 
	C210.598816,121.867752 216.637543,120.697281 218.272171,111.386154 
	C220.843719,113.584358 220.443069,115.480026 219.309921,117.222404 
	C218.044449,119.168251 216.880417,121.695282 215.003876,122.635681 
	C208.323227,125.983574 206.311478,132.732483 202.667130,138.293945 
	C200.569061,141.495682 200.747406,143.652664 203.340439,146.735138 
	C204.745529,145.014816 203.132874,143.190765 203.655807,141.547638 
	C204.177505,139.908310 204.665359,138.263184 206.649765,137.975876 
	C208.195648,137.752045 209.132401,138.788803 209.757355,140.037140 
	C210.524033,141.568604 211.160034,143.140564 209.345657,144.474869 
	C208.675583,144.967636 207.920670,145.430481 207.441528,146.081482 
	C205.975266,148.073608 205.228058,151.676849 201.665405,149.338074 
	C198.686905,147.382797 198.385681,144.129410 199.135880,140.847534 
	C200.004715,137.046707 203.339691,134.440521 204.184402,130.597824 
	C204.429749,129.481674 204.923645,128.420151 205.399994,127.057899 
	C202.376480,124.342247 198.850479,124.936508 195.494293,125.442657 
	C190.599030,126.180916 186.094757,128.901489 180.909225,128.330750 
	C179.838455,128.212891 179.086761,129.018356 178.518250,129.896255 
	C171.184174,141.222198 165.052414,152.650421 168.057190,167.155594 
	C169.382416,173.552917 168.368164,180.440247 168.369064,187.105103 
	C168.370056,194.421906 170.195633,201.248505 173.701859,207.652023 
	C176.479080,212.724167 180.557739,215.473633 186.505066,215.801468 
	C192.359512,216.124176 198.191315,217.004333 203.551895,221.295258 
	C200.407730,222.276001 198.476425,219.622635 196.465408,220.495346 
	C194.783997,233.820908 194.346771,247.025330 193.611023,260.217163 
	C192.889771,273.148987 194.329102,286.466461 189.020309,298.860291 
	C187.979904,294.378235 190.701263,290.132416 189.049637,285.241760 
	C178.099823,293.581024 165.168793,297.742706 152.445908,302.339539 
	C149.011017,303.580566 145.442230,304.450928 141.935165,305.492218 
	C138.832809,306.413300 137.733871,308.151764 138.763214,311.496521 
	C143.764099,327.746613 146.103638,344.521942 147.286697,361.386414 
	C148.754089,382.304108 157.723907,399.897552 169.863159,416.690247 
	C169.250000,417.000000 168.500000,417.000000 167.202286,416.707855 
	C165.593124,414.927979 164.533157,413.439209 163.470016,411.952698 
	C156.848984,402.695099 150.673279,392.885040 147.942444,381.970062 
	C144.941528,369.975555 144.309677,357.388184 142.647949,345.058807 
	C141.119049,333.715027 140.156250,322.245026 135.548843,311.564148 
	C134.682831,309.556580 134.329880,306.946289 131.317245,306.574402 
	C129.253296,308.545898 130.472412,310.568573 131.082565,312.561249 
	C131.810272,314.937775 132.842972,317.266174 133.221924,319.696747 
	C135.313339,333.110504 137.455505,346.522461 139.163177,359.987915 
	C140.427216,369.955261 142.402084,379.899902 140.399551,390.088623 
	C138.596451,399.262756 135.424820,408.019928 133.000000,417.000000 
	C132.250000,417.000000 131.500000,417.000000 130.512268,416.661285 
	C131.405579,412.840759 132.674454,409.396759 133.642395,405.870178 
	C136.859863,394.147614 139.582581,382.415466 137.739120,370.035217 
	C136.030243,358.558533 135.273193,346.935394 133.416580,335.487091 
	C132.153030,327.695831 131.318558,319.708344 127.713333,312.419556 
	C126.471046,309.908020 125.344032,307.684509 122.171043,307.422913 
	C105.083557,306.014404 88.712250,308.635803 73.203224,316.093750 
	C69.723381,317.767151 66.683624,320.061249 63.964676,322.823639 
	C51.989243,334.990448 48.689907,350.435333 47.352966,366.620178 
	C45.966637,383.402954 46.013355,400.198975 47.000000,417.000000 
	C46.250000,417.000000 45.500000,417.000000 44.375000,417.000000 
	C43.918003,408.010071 43.729679,399.019562 43.777649,390.030334 
	C43.860222,374.558807 44.200039,359.058228 48.659950,344.092377 
	C53.805862,326.824524 64.450912,314.955719 82.299301,309.626923 
	C93.109894,306.399353 103.807243,303.949982 115.129463,304.839233 
	C118.630310,305.114136 122.101715,304.805481 125.427040,303.434814 
	C130.408752,301.381317 135.546265,304.107941 140.696426,302.807709 
	C154.823151,299.241272 168.335846,294.233948 181.109055,287.213684 
	C187.356186,283.780212 190.520004,278.711365 190.604401,271.456879 
	C190.747360,259.167023 191.444656,246.880341 191.413651,234.593582 
	C191.403427,230.545670 189.769699,226.535736 189.318237,222.397293 
	C189.053101,219.966705 186.459885,219.223465 184.374115,218.746582 
	C174.375061,216.460403 170.614410,209.000275 167.586563,200.167542 
	C165.081253,192.859055 164.648956,185.709717 166.223129,177.966873 
	C164.065918,178.324631 164.661514,180.905701 162.497940,180.675186 
	C161.557007,178.100555 161.307892,175.254700 161.065979,171.577591 
	C159.634705,173.180893 158.668243,174.263535 157.447174,175.631363 
	C159.674850,176.576447 159.862701,177.870697 158.742355,179.847351 
	C157.105148,182.735962 155.723953,185.791946 154.495911,188.880844 
	C153.875931,190.440308 153.007385,192.217712 154.293381,194.340195 
	C158.035690,192.225037 157.815430,187.468674 161.303589,184.907928 
	C160.833908,191.216751 154.314911,195.086670 155.981415,202.023651 
	C154.002686,207.750687 158.948196,217.291382 164.738174,219.452316 
	C165.236954,213.605118 160.081039,210.092148 159.020676,205.012619 
	C164.691696,208.691422 165.999329,214.827072 167.909164,220.174026 
	C167.603302,222.522003 164.957306,221.599915 164.685486,223.409180 
	C164.692734,223.570343 164.664749,223.749191 164.719177,223.897842 
	C165.793182,226.830307 169.879486,228.737930 168.976608,232.002075 
	C167.359238,237.849472 166.346375,244.077332 162.010437,248.890671 
	C160.233643,250.863129 158.604797,252.998383 157.129150,255.206909 
	C153.176422,261.122650 151.844757,267.344818 156.330292,274.453918 
	C152.164932,272.341064 150.909775,269.782013 151.234024,265.282257 
	C151.655228,259.437256 153.941162,254.411392 157.685944,249.899094 
	C167.425171,238.163727 166.908096,228.446579 156.464996,217.097214 
	C153.165329,213.511215 149.346786,210.138885 150.350128,204.087952 
	C150.768539,201.564575 149.012970,198.677231 148.232437,195.959244 
	C146.299530,189.228348 144.562012,182.478500 145.876465,175.176498 
	C141.626938,180.250320 139.396652,186.041229 138.434067,192.529312 
	C137.435760,199.258209 138.948273,205.602661 140.570755,212.095612 
	C137.147476,209.052551 136.119278,204.865784 135.886047,200.814804 
	C135.191452,188.749893 136.744888,177.258606 145.754761,167.945877 
	C150.488770,163.052765 154.787613,157.737564 159.262924,152.595535 
	C163.117584,148.166611 162.013977,141.990646 156.500992,138.771469 
	C162.290955,133.021500 156.499222,127.387573 156.675980,120.351242 
	C152.984680,125.717278 151.694839,130.728928 150.634399,135.806213 
	C148.685883,135.557587 149.217651,134.348740 149.420303,133.515259 
	C152.321259,121.584023 157.669159,110.702644 163.895660,100.217766 
	C164.459259,99.268715 165.428009,98.170502 166.406158,97.923302 
	C171.252060,96.698647 174.162338,92.938103 177.543808,89.804085 
	C181.537048,86.103073 183.314911,80.734787 187.621063,76.999786 
	C189.391022,75.464577 189.101822,70.333549 188.322052,65.718338 
	C178.396866,72.801758 171.421188,81.029610 166.817871,91.364922 
	C165.576691,90.335159 165.967194,89.309959 166.342529,88.464287 
	C171.456802,76.941170 177.524658,65.907845 188.465500,59.007030 
	C193.548019,55.801289 199.730438,54.252354 205.530228,52.296200 
	C210.960968,50.464531 214.720383,46.678703 217.826538,42.259296 
	C219.120575,40.418159 220.904221,38.864716 222.321640,36.273426 
	C217.160477,36.213451 214.937744,39.581337 212.306137,42.361145 
	C212.906937,33.912956 221.579941,34.812286 225.708633,30.547436 
	C230.136292,33.585140 234.895462,33.958244 239.970673,33.572197 
	C240.701904,23.440903 244.440292,16.255457 255.548370,15.560866 
	C257.499695,15.438848 258.028656,13.515731 259.087677,12.292921 
	C264.081085,6.527276 269.618774,5.515962 276.373993,9.066772 
	C278.730621,10.305490 281.230591,11.278520 283.551788,12.575636 
	C285.792328,13.827660 287.794891,13.743999 290.175598,12.774843 
	C300.750824,8.469740 310.059662,13.374451 312.379486,24.462603 
	C313.253021,28.638054 314.978729,30.684877 319.769043,30.527048 
	C327.209412,30.281906 333.796875,33.106850 339.085815,38.489582 
	C340.472168,39.900520 342.195953,41.447502 342.652405,43.218666 
	C344.144958,49.010181 346.056458,54.643620 347.788635,60.463158 
	C343.292114,57.338684 343.217773,61.561630 341.342255,64.178719 
	C347.553253,63.152248 341.965637,68.191902 345.000916,69.192215 
	C347.749054,67.174286 347.531830,63.940784 347.971405,60.972942 
	C350.287323,66.443779 349.745422,68.246620 344.559875,72.278564 
	C342.571198,72.148628 341.734833,67.863380 339.299408,70.300720 
	C336.979950,72.622040 336.186707,75.930923 338.004517,79.013268 
	C339.522705,81.587585 341.707428,83.584175 344.558624,84.924950 
	C348.875214,86.954849 351.207947,90.504112 350.573883,95.363083 
	C350.258942,97.776573 351.281891,99.049622 352.938232,100.373100 
	C355.150452,102.140739 357.132233,104.162735 358.633606,106.603378 
	C363.116272,113.890594 362.546448,119.320457 356.283112,125.510376 
	C356.607697,123.771500 357.247589,122.268272 357.931335,120.785255 
	C359.828094,116.671089 358.337769,111.350075 353.773315,107.837135 
	C354.140289,112.307526 354.119049,116.334625 354.935333,120.184113 
	C355.343536,122.109100 353.288818,124.558075 356.016632,125.990540 
	C352.791809,130.491302 355.449799,134.066452 358.322998,137.031067 
	C362.587128,141.430969 365.952942,146.034378 366.040833,152.433563 
	C366.110229,157.487473 364.815948,162.097107 360.821167,165.349930 
	C358.165741,167.512161 358.190430,169.332794 359.709534,172.163269 
	C363.848633,179.875488 365.664307,188.074387 363.022247,196.702271 
	C361.827850,200.602615 360.173157,204.409241 354.337280,205.579849 
	C358.291229,200.904190 361.554565,197.008987 361.753265,191.448807 
	C362.005951,184.377808 358.962189,178.553192 355.420471,172.856506 
	C354.648773,171.615250 353.700043,170.086838 351.873169,170.866760 
	C349.931366,171.695755 350.190582,173.541336 350.430664,175.209702 
	C350.713684,177.176300 351.250305,179.118393 351.383942,181.090958 
	C351.505707,182.888489 351.518921,184.835251 348.992065,185.978806 
	C348.233398,183.832748 349.819336,181.382858 348.248962,179.514633 
	C347.939789,179.544067 347.362610,179.576904 347.362915,179.603745 
	C347.439178,186.930801 343.519653,193.647369 345.941010,201.590530 
	C349.573578,213.506836 347.256409,221.589462 334.776550,230.620987 
	C332.498932,232.269302 328.304474,233.374619 328.901062,236.619461 
	C329.470337,239.716095 333.348846,240.729538 336.377899,241.725204 
	C337.772491,242.183624 339.178680,242.606720 341.496124,243.333099 
	C336.334045,245.821732 332.916443,241.344589 328.080872,241.655762 
	C331.383118,249.479950 328.432343,256.359253 325.589111,262.861938 
	C324.170807,266.105774 321.367279,269.568451 317.045593,270.389984 
	C311.447021,271.454224 307.034454,273.528778 306.610870,280.302307 
	C306.441284,283.014343 304.585144,285.334320 302.179901,287.072357 
	C304.942413,280.725647 306.009766,274.281677 303.699768,267.758636 
	C302.387329,264.052612 300.456482,260.542175 298.566498,257.073151 
	C297.487518,255.092743 296.318298,252.566635 293.355927,253.335190 
	C290.282867,254.132492 287.384369,255.367111 286.101807,258.765961 
	C282.093109,269.389252 286.737823,287.220428 295.778259,293.954071 
	C307.622101,302.775787 320.579987,310.242676 334.776550,313.765930 
	C347.038116,316.808899 359.831757,318.716492 371.939972,322.049835 
	C397.962769,329.213867 414.134949,341.651733 419.174347,367.814636 
	C422.242981,383.745972 420.629913,399.960541 420.020142,416.532288 
	C419.250000,417.000000 418.500000,417.000000 417.512695,416.611328 
	C418.902283,400.959320 418.927155,385.724762 416.634399,370.509918 
	C414.308655,355.076233 407.431213,342.819977 393.730530,334.361725 
	C382.454926,327.400604 370.606903,323.027405 357.439117,321.625763 
	C349.572388,320.788361 348.274628,321.254547 347.195984,329.364502 
	C345.514557,342.006683 343.795898,354.650299 342.497406,367.334717 
	C341.656036,375.554138 339.608063,383.726868 340.619171,392.066132 
	C341.635498,400.448425 342.979492,408.787292 345.000000,417.000000 
	C344.250000,417.000000 343.500000,417.000000 342.379028,416.575806 
	C340.555054,404.365631 336.631866,392.988739 338.467194,380.675415 
	C341.306671,361.625336 343.050629,342.412323 345.291046,323.272125 
	C345.526123,321.263580 346.218323,318.970215 343.425903,318.432251 
	C340.570648,317.882202 340.259155,320.309570 339.998474,322.279785 
	C338.103088,336.602905 336.319641,350.940948 334.401886,365.261017 
	C332.688599,378.054321 331.790894,390.974823 324.658356,402.490906 
	C321.705627,407.258270 317.947693,411.614716 316.000000,417.000000 
	C314.933319,417.000000 313.866669,417.000000 312.399994,417.000000 
M304.244537,245.147110 
	C297.322998,246.341080 297.303619,246.407181 300.862061,252.408142 
	C301.176239,252.937881 300.984833,253.748108 301.242950,254.333374 
	C303.616974,259.717133 306.306183,264.757019 312.084290,267.450592 
	C315.247375,268.925079 317.653534,268.296722 319.548248,265.767273 
	C323.298187,260.761139 326.225677,255.352432 325.615265,248.788940 
	C325.345398,245.887268 325.855133,241.992630 322.573029,240.962448 
	C319.812897,240.096100 318.344208,243.518890 316.596283,245.410858 
	C313.446075,248.820679 310.257568,252.140762 304.836243,252.140640 
	C305.703064,249.643036 308.300201,249.534378 309.875946,247.546753 
	C307.343628,247.801682 305.267120,248.946121 303.091187,247.561737 
	C303.826141,246.545380 304.396332,245.756912 305.696655,245.021027 
	C310.442535,246.635773 313.218994,243.826782 315.588043,240.445236 
	C317.824127,237.253525 318.887268,233.816315 316.321808,228.755127 
	C313.521332,235.710052 310.188965,241.083420 304.244537,245.147110 
M337.290710,223.135040 
	C343.091644,218.650879 345.851562,206.830643 342.489960,199.948608 
	C334.954803,207.097809 328.393463,214.910706 323.402771,223.894852 
	C322.446106,225.617035 323.098419,228.312027 324.953278,230.118240 
	C326.499573,231.624008 328.017456,231.900009 329.845428,230.701248 
	C332.729675,228.809769 336.887909,228.156998 337.290710,223.135040 
M282.269592,264.219086 
	C282.625519,257.045654 285.331482,249.916397 283.516266,242.247208 
	C272.028137,248.238693 271.666901,262.323578 280.782074,273.160156 
	C282.461212,270.565704 282.436249,267.795197 282.269592,264.219086 
M171.349396,106.974457 
	C171.726395,105.353424 173.585312,103.933350 172.085907,102.014610 
	C160.502747,107.753769 155.793701,120.323242 161.458298,130.928665 
	C166.608078,123.843483 166.687759,114.841766 171.349396,106.974457 
M337.862305,47.635921 
	C337.390991,45.190487 335.929047,43.435390 333.886047,42.158497 
	C332.281372,41.155556 331.093964,41.511467 330.458160,43.423347 
	C329.002197,47.801174 331.812744,56.800961 335.569275,59.673889 
	C338.079010,61.593281 339.690826,60.828289 341.019440,58.133549 
	C343.132782,53.847336 339.630005,51.428776 337.862305,47.635921 
M353.950317,144.619141 
	C353.066498,150.812363 354.354614,156.959656 354.733185,163.090454 
	C354.907623,165.915771 357.701447,164.692459 359.172241,163.045059 
	C363.502106,158.195374 363.016754,148.960175 358.285461,144.488983 
	C357.055511,143.326630 355.837402,142.813553 353.950317,144.619141 
M149.741516,180.695816 
	C149.607834,182.925995 149.474167,185.156158 149.340485,187.386337 
	C149.738831,187.469955 150.137177,187.553589 150.535522,187.637207 
	C151.526688,177.947464 158.993805,170.721878 160.326218,161.142380 
	C153.845978,165.867310 150.155762,171.982651 149.741516,180.695816 
M244.827789,27.944618 
	C244.637421,29.362501 243.752869,30.897923 245.371002,32.041775 
	C246.163864,32.602253 247.339981,32.425884 247.530533,31.669605 
	C248.638672,27.271557 252.604401,24.102518 253.407959,19.306538 
	C247.464218,19.525608 245.873291,21.131605 244.827789,27.944618 
M164.325165,133.267670 
	C161.234940,136.330566 160.384735,139.636063 163.092468,143.441910 
	C166.159607,141.306671 167.537552,138.410385 167.539963,134.942795 
	C167.541061,133.364105 167.490967,131.135620 164.325165,133.267670 
M267.268616,12.696464 
	C269.072174,11.768995 270.875732,10.841527 272.935913,9.782087 
	C267.910034,7.786552 263.673584,9.803076 260.357422,15.561214 
	C262.948395,15.663886 264.796356,14.352635 267.268616,12.696464 
M342.719666,91.682899 
	C343.984283,93.150063 345.053619,94.998993 347.700531,94.152275 
	C348.746674,90.994598 346.984283,88.751793 344.544250,87.875801 
	C342.124176,87.006966 342.252838,89.362144 342.719666,91.682899 
M171.501358,127.624054 
	C170.981750,126.368256 170.230301,125.397568 169.202042,127.079681 
	C167.911057,129.191574 168.184250,131.183762 169.953156,132.983841 
	C172.083054,131.558014 171.553406,129.824081 171.501358,127.624054 
z"/>
<path fill="#000000" opacity="1.000000" stroke="none" 
	d="
M123.333328,417.000000 
	C119.652901,407.375946 114.650040,398.268372 113.444565,387.189880 
	C116.528877,388.411926 117.231346,386.437561 118.452675,384.448761 
	C122.179863,394.805939 119.893578,406.349609 125.042557,416.618347 
	C124.555557,417.000000 124.111107,417.000000 123.333328,417.000000 
z"/>
<path fill="#000000" opacity="1.000000" stroke="none" 
	d="
M180.069336,241.030151 
	C176.659988,238.058884 179.316818,235.244095 180.391815,231.757919 
	C184.424362,235.339951 179.661896,237.912552 180.069336,241.030151 
z"/>
<path fill="#000000" opacity="1.000000" stroke="none" 
	d="
M144.151520,156.466461 
	C145.340668,153.981339 146.284439,151.750824 149.364868,150.534882 
	C147.747467,155.231995 144.545334,158.507324 143.815094,163.572433 
	C142.083618,160.639481 143.718384,158.782562 144.151520,156.466461 
z"/>
<path fill="#000000" opacity="1.000000" stroke="none" 
	d="
M289.813232,113.314339 
	C291.087708,116.329857 292.803314,118.845589 292.627808,121.987755 
	C289.880005,122.457672 289.718842,120.304245 289.001801,119.049301 
	C282.852814,108.287636 273.783203,103.240082 261.301392,104.353203 
	C256.154083,104.812241 251.017776,104.100960 245.903458,103.421349 
	C243.782013,103.139442 241.013779,103.441010 241.360397,100.282890 
	C241.647141,97.670181 243.029556,95.422867 245.978195,94.499641 
	C251.903778,92.644302 257.744965,93.622986 263.576630,94.781471 
	C274.906128,97.032127 284.996460,101.126259 289.813232,113.314339 
z"/>
<path fill="#000000" opacity="1.000000" stroke="none" 
	d="
M242.960205,178.719284 
	C239.946793,179.001984 237.294434,179.171585 234.641510,179.181198 
	C232.952209,179.187317 231.241791,178.889603 230.304932,177.231903 
	C227.432678,172.149658 222.441437,170.889496 217.291840,170.245163 
	C213.044022,169.713699 208.759018,170.073212 204.525024,168.670441 
	C200.914200,167.474121 197.766159,169.502579 195.038559,171.892273 
	C193.788666,172.987320 192.632370,174.225250 191.258560,175.133636 
	C189.559555,176.257050 188.020630,175.380066 186.880936,174.061371 
	C185.754898,172.758453 185.812698,171.422882 187.207260,170.133972 
	C188.408630,169.023605 189.399918,167.685944 190.784607,166.105835 
	C192.623215,168.555771 194.633987,168.781509 197.558762,167.244858 
	C208.126129,161.692795 217.994919,166.028107 227.789490,170.062683 
	C228.700424,170.437897 229.957642,171.662186 230.323578,171.414215 
	C234.953079,168.277222 237.912674,172.923752 241.623505,173.790405 
	C243.903549,174.322906 246.337402,175.687820 242.960205,178.719284 
z"/>
<path fill="#000000" opacity="1.000000" stroke="none" 
	d="
M263.446411,125.496765 
	C269.425018,127.192657 275.742126,127.066933 281.595642,131.879227 
	C277.466492,133.326172 274.455536,134.912048 271.818665,133.605927 
	C262.770233,129.123962 251.390625,132.254318 242.755402,125.054527 
	C245.934692,121.920593 248.255447,119.902565 252.572205,122.511848 
	C255.572052,124.325142 259.545441,124.527847 263.446411,125.496765 
z"/>
<path fill="#000000" opacity="1.000000" stroke="none" 
	d="
M157.354584,320.747498 
	C170.687393,327.061005 184.332809,331.503662 197.978745,335.985138 
	C182.279404,334.003021 167.749893,328.629517 153.606873,321.396057 
	C155.003128,319.216125 156.033279,320.427002 157.354584,320.747498 
z"/>
<path fill="#000000" opacity="1.000000" stroke="none" 
	d="
M303.605164,337.809570 
	C293.777222,340.243225 284.311646,342.308411 274.402222,340.906067 
	C290.240936,339.399567 305.518524,335.483337 320.712219,330.933136 
	C315.615540,334.481842 309.833527,336.148102 303.605164,337.809570 
z"/>
<path fill="#000000" opacity="1.000000" stroke="none" 
	d="
M219.229462,155.550903 
	C221.222717,156.346954 223.023056,156.831970 224.053864,159.217346 
	C214.363922,157.823288 204.786819,153.811295 195.794586,160.788254 
	C199.185638,154.494812 209.945648,152.272522 219.229462,155.550903 
z"/>
<path fill="#000000" opacity="1.000000" stroke="none" 
	d="
M225.716064,147.184158 
	C221.252335,147.154861 219.982224,142.540634 216.259277,141.380234 
	C215.062744,141.007309 216.390869,138.637741 217.959457,138.232452 
	C220.909515,137.470184 222.975876,139.382736 224.843796,141.195404 
	C226.463028,142.766724 228.291870,144.570755 225.716064,147.184158 
z"/>
<path fill="#000000" opacity="1.000000" stroke="none" 
	d="
M198.838715,179.614761 
	C197.588898,179.197220 196.470322,179.242416 195.891159,176.765793 
	C203.688675,178.528214 211.219833,178.803253 218.666519,180.058670 
	C212.073990,182.499527 205.599228,182.177032 198.838715,179.614761 
z"/>
<path fill="#000000" opacity="1.000000" stroke="none" 
	d="
M231.186783,149.215424 
	C232.489609,147.809753 233.490601,146.565872 235.048950,144.629395 
	C236.122284,148.230621 235.062469,149.917694 233.159134,151.084335 
	C230.949020,152.438980 228.624084,152.994415 226.193253,150.628937 
	C227.633774,149.012924 229.553680,150.173828 231.186783,149.215424 
z"/>
</svg>