<svg version="1.1" id="Layer_1" xmlns="http://www.w3.org/2000/svg" xmlns:xlink="http://www.w3.org/1999/xlink" x="0px" y="0px"
	 width="100%" viewBox="0 0 464 480" enable-background="new 0 0 464 480" xml:space="preserve">
<path fill="#000000" opacity="1.000000" stroke="none" 
	d="
M335.973358,355.767822 
	C350.026428,346.831207 359.618744,329.233459 356.734894,317.397675 
	C353.774261,319.950836 352.097900,323.759918 348.588318,325.194946 
	C337.278900,329.819305 326.533813,335.824371 314.594238,338.930389 
	C310.767334,339.925995 307.095093,337.442108 302.949860,338.798096 
	C304.821259,351.866333 314.077515,358.398010 324.541473,363.140930 
	C335.585358,368.146698 346.782410,367.095612 357.416718,360.572388 
	C354.095825,366.358063 348.502747,367.704956 342.849182,368.246338 
	C334.264771,369.068329 326.286743,367.058197 318.174530,363.680511 
	C310.743713,360.586578 303.904205,357.412384 299.240662,350.747803 
	C297.204315,347.837738 295.669922,344.576447 293.474396,341.676880 
	C294.152863,353.893799 297.682800,365.086243 304.865234,375.024658 
	C307.608948,378.821167 310.814850,381.853516 315.132507,384.168915 
	C324.591675,389.241516 332.440399,396.235352 338.919434,405.048096 
	C344.050812,412.027771 352.068176,416.231750 358.413544,422.131653 
	C365.976196,429.163361 373.821320,435.896301 380.645599,443.686493 
	C381.377075,444.521484 382.508789,445.180542 381.988373,446.891632 
	C379.859833,447.247253 378.876801,445.444458 377.752686,444.260803 
	C361.047638,426.670654 341.731995,412.109222 322.965210,396.909698 
	C314.329773,389.915710 306.120697,382.542603 296.434570,376.725220 
	C276.916473,365.002899 272.835815,347.491821 283.687775,327.444061 
	C284.634308,325.695496 285.714539,324.019318 286.785492,322.220795 
	C281.283112,323.857544 274.055359,329.114868 268.532471,335.265442 
	C263.279175,341.115753 260.253296,348.000977 258.191925,355.525482 
	C256.101837,363.154846 257.152832,370.527374 259.860321,377.969727 
	C257.015594,378.048889 256.908173,376.505737 256.494385,375.328583 
	C252.609451,364.276703 254.160461,353.714783 259.472412,343.527710 
	C265.076996,332.779419 273.912292,325.352173 284.391937,319.737457 
	C287.287445,318.186066 289.318573,316.237915 289.370850,312.894012 
	C289.504517,304.352509 293.112183,297.196411 297.967010,290.487976 
	C298.315460,290.006470 298.458374,289.376251 299.075195,287.925049 
	C286.550568,291.671509 274.359619,296.719635 264.667206,283.314941 
	C253.760437,292.597534 246.024933,305.150726 231.681885,309.416290 
	C245.206863,300.679535 255.646133,288.826080 265.611786,276.297333 
	C271.900177,289.475250 275.084229,290.229401 292.131653,286.786926 
	C314.804932,282.208435 327.827698,267.545074 335.963135,247.209610 
	C336.605011,245.605225 337.669922,243.908051 335.912598,241.396851 
	C333.287445,256.671783 323.252991,265.898041 311.058807,273.529572 
	C320.363953,266.775635 322.044373,256.284851 324.540253,245.094055 
	C327.445709,249.593536 324.174561,253.163269 325.401154,256.528503 
	C331.556030,251.434235 333.758118,239.700363 329.791992,233.197983 
	C327.452576,229.362549 323.905548,227.821121 319.553955,228.627426 
	C316.046295,229.277359 313.188843,231.404922 310.315369,233.425858 
	C307.774963,235.212540 309.666748,237.257217 310.003448,239.450882 
	C308.743744,239.344070 307.675354,239.253494 305.562195,239.074326 
	C308.748688,246.287277 315.693390,252.095367 311.263855,261.657959 
	C310.498627,257.606567 309.984344,254.617371 309.340851,251.656219 
	C309.170624,250.872711 308.692902,250.107803 308.200165,249.451645 
	C306.734680,247.500046 305.559814,244.378204 302.862366,244.826157 
	C299.899384,245.318222 300.265442,248.599655 300.000488,251.041229 
	C299.933563,251.657974 299.696777,252.256287 299.411804,253.345612 
	C296.450958,251.400436 296.779816,248.779861 297.679138,246.694153 
	C301.319366,238.251648 306.396881,230.942108 315.314026,227.265640 
	C323.583099,223.856384 329.383575,226.031677 333.538086,233.933060 
	C334.224579,235.238770 334.906647,236.546814 335.660400,237.986771 
	C339.012390,231.569962 333.326385,222.398254 325.451233,221.171890 
	C319.980377,220.319946 314.465149,220.921616 310.101868,224.198318 
	C300.614166,231.323288 291.056488,232.417633 280.646790,225.616699 
	C278.795258,231.385101 279.050720,236.854050 278.421356,242.022766 
	C276.186737,243.049469 276.505463,240.350906 274.908539,240.327682 
	C272.630188,242.289703 271.286194,245.558701 268.456604,247.180832 
	C266.703033,245.756348 267.736420,244.695999 268.430847,243.968018 
	C277.590851,234.365356 275.698547,223.772766 271.246338,212.977814 
	C269.763519,209.382614 269.226685,205.639542 268.753967,201.417480 
	C273.536926,202.208618 271.960785,198.966110 272.427368,196.494324 
	C272.932678,193.817490 273.890137,191.180298 274.524567,188.157593 
	C276.621704,199.569290 281.332977,209.627548 289.682465,217.218018 
	C299.652100,226.281296 310.709961,219.693970 322.981201,217.624481 
	C316.333466,214.915192 311.061646,212.679642 305.326965,211.441895 
	C298.022949,209.865402 291.542114,206.541260 286.393097,201.053375 
	C285.013580,199.583069 283.486755,197.772293 284.241211,194.895126 
	C288.513824,196.030807 289.228088,201.978882 294.662140,202.111633 
	C289.140778,195.044220 282.244843,189.763458 277.382629,182.527618 
	C277.909393,185.537796 278.436188,188.547974 279.029602,191.939102 
	C276.127777,191.389145 276.359711,189.141327 275.961670,187.690552 
	C273.593903,179.060226 271.700470,170.361221 266.769989,162.569534 
	C263.464020,157.345093 262.667725,151.004837 261.436981,144.961136 
	C261.139496,143.500397 260.872070,142.037781 262.845581,140.235703 
	C265.249390,147.702377 265.424347,155.492508 270.257874,161.560638 
	C267.180725,154.756836 268.860443,146.741379 264.592194,140.262451 
	C264.412292,139.989380 264.211884,139.645020 264.224518,139.342346 
	C264.607605,130.148727 257.914612,124.646706 253.326889,117.961937 
	C249.168594,111.902870 245.933029,105.382080 246.326462,97.580956 
	C246.707291,90.029648 243.409988,83.287338 238.741425,78.043793 
	C235.725433,74.656334 230.211716,73.367195 225.660477,71.525276 
	C223.393250,70.607712 221.742264,69.747665 222.453354,67.002258 
	C219.984512,66.818954 218.853561,69.975426 216.661011,68.585197 
	C214.657303,67.314713 211.353455,67.856689 210.687363,64.769493 
	C210.052094,61.825142 211.622635,59.390434 213.809784,57.836254 
	C218.956360,54.179119 224.335800,50.855244 230.732010,49.703362 
	C232.270996,49.426205 234.057327,49.792645 235.739716,47.689938 
	C226.528244,46.260849 218.176636,46.406490 210.893631,52.338799 
	C206.730911,55.729511 205.286621,60.057976 207.549545,65.208855 
	C200.457886,66.744370 191.450241,64.566284 190.397430,59.917892 
	C189.053604,53.984653 187.615646,47.631191 190.054993,41.404530 
	C191.442291,37.863327 192.810516,34.324921 195.045517,31.016726 
	C190.782455,30.828293 188.871735,33.662727 185.675186,41.366489 
	C183.612793,46.336964 185.608856,51.002846 185.951691,56.704185 
	C182.057632,54.117386 181.965454,51.202675 182.119827,48.210281 
	C182.908463,32.922176 191.941483,23.035217 204.304611,15.943553 
	C215.661942,9.428830 227.806412,7.726227 240.902390,11.161283 
	C247.802322,12.971127 255.183868,13.328001 262.186768,15.073304 
	C276.134552,18.549450 288.324799,25.731918 299.990601,33.860580 
	C303.434296,36.260128 307.067261,38.066261 311.026215,39.527321 
	C332.795288,47.561222 350.250031,60.603268 359.793213,82.549004 
	C360.258148,83.618156 360.915588,84.662598 361.106567,85.782799 
	C363.211151,98.126694 369.235382,108.793526 375.081573,119.615631 
	C381.373718,131.263229 384.687958,144.003952 387.184113,157.300232 
	C389.405334,151.176682 388.845337,143.475037 386.064270,131.854568 
	C384.078125,123.555542 379.394897,116.533333 375.131531,108.817894 
	C378.219177,108.852997 378.928345,110.765030 379.863495,112.175552 
	C390.758972,128.609467 394.168243,146.405701 389.071075,165.563416 
	C388.351685,168.267197 388.916779,169.614044 390.835663,171.527451 
	C394.434235,175.115723 397.357391,179.355988 401.815552,182.100845 
	C402.810577,182.713455 403.916992,183.846252 403.155396,185.817245 
	C400.396576,186.033066 399.569092,182.654770 396.279175,182.169373 
	C396.397278,184.773285 395.219971,187.321045 399.575287,187.568832 
	C409.547516,188.136139 414.986176,194.502441 418.671906,202.902435 
	C420.757324,207.655182 421.763885,212.709930 422.109863,218.301788 
	C425.348419,215.444702 423.527802,211.969543 424.015381,209.046356 
	C426.165710,196.154663 420.956207,184.629700 411.065155,178.819504 
	C407.059204,176.466339 402.592072,176.370987 397.059906,175.985809 
	C400.484680,173.174423 403.270508,173.690002 405.955597,174.218918 
	C417.631500,176.518860 427.344940,188.787811 427.481995,201.670837 
	C427.545197,207.609238 428.690063,212.742447 432.281189,217.909271 
	C442.606232,232.764816 437.974548,252.034515 422.233704,260.919800 
	C418.303680,263.138245 417.326080,265.310120 418.203796,269.646179 
	C420.603424,281.500610 411.228790,300.150574 399.774231,306.646118 
	C391.483154,311.347748 382.693909,314.045166 372.972473,311.801361 
	C370.282471,311.180450 367.184174,312.203278 365.112518,309.303894 
	C364.521759,308.477112 362.993652,307.899719 361.950439,308.835876 
	C360.664154,309.990204 360.290802,311.610901 360.352600,313.379913 
	C360.876953,328.390625 356.409332,341.551147 345.460175,352.099762 
	C342.292175,355.151855 338.762207,357.959412 334.138123,358.746124 
	C333.335632,356.805237 334.989746,356.679504 335.973358,355.767822 
M392.435455,297.398773 
	C385.901917,302.877380 377.780518,304.952667 369.113464,307.552826 
	C372.648346,309.052032 375.450043,309.659973 378.257202,309.543884 
	C384.813446,309.272827 387.917664,302.508270 393.822784,300.647217 
	C394.697296,303.243500 391.473236,304.027954 391.871307,306.169647 
	C405.758850,306.146240 420.253967,278.646240 413.188690,264.163239 
	C407.950714,269.028076 408.484772,276.129303 405.472931,281.505035 
	C402.135925,287.460968 397.613159,292.190796 393.000793,296.999115 
	C393.000793,296.999115 392.990540,297.012024 392.435455,297.398773 
M325.951111,201.548508 
	C323.288025,198.542099 319.543030,196.497681 318.171692,192.314758 
	C331.254364,200.733200 341.284424,212.209213 349.302673,225.318100 
	C357.379150,238.522202 362.974335,252.802307 363.385468,269.151764 
	C365.948547,267.096954 366.115234,264.756683 367.102814,262.888580 
	C378.356110,241.600922 377.499664,220.735291 364.595856,200.379868 
	C363.591980,198.796310 362.035980,197.369568 362.860779,193.978867 
	C373.455353,205.995132 376.751129,219.804611 378.657501,234.356308 
	C382.209991,224.454132 385.477966,214.451157 384.626801,204.240952 
	C383.621521,192.182083 377.077026,182.425400 367.609589,174.773132 
	C366.307617,173.720795 364.251801,173.135544 364.525665,169.948517 
	C372.559753,173.765518 377.427887,180.279648 381.976624,187.232910 
	C387.717407,180.545380 385.459015,173.126663 385.196228,166.509583 
	C384.493011,148.802322 378.625366,132.324173 370.479187,116.690392 
	C357.827515,92.409943 339.296967,73.174965 317.696136,56.858868 
	C297.184814,41.365723 274.990662,29.626390 248.276962,29.721180 
	C247.141190,29.725210 245.888077,29.698423 245.163361,27.369019 
	C261.004913,26.092049 275.816284,32.024406 291.270996,32.369225 
	C285.262573,27.195608 278.211853,24.031744 271.057465,21.056351 
	C270.614655,20.872187 269.744110,20.661795 269.672546,20.792397 
	C267.273438,25.170389 264.486145,21.666912 262.249878,20.885408 
	C254.623093,18.220087 247.275711,15.053790 238.845291,15.250481 
	C232.854416,15.390254 223.988983,16.881598 220.734100,19.657066 
	C240.820877,24.957087 240.820877,24.957087 242.000061,28.581186 
	C238.680374,29.870783 234.553574,28.993202 231.009552,32.085701 
	C247.015686,36.064156 257.315704,46.397892 265.766174,59.009808 
	C267.186188,61.129097 269.304993,61.920284 271.488129,62.752766 
	C284.774048,67.819008 297.103455,74.765480 309.244843,82.065765 
	C310.522064,82.833710 312.425629,83.383011 311.873840,86.355179 
	C298.132294,79.346298 285.478485,70.595444 269.604645,65.450974 
	C276.577698,80.293571 283.477661,93.583298 285.781128,109.456306 
	C282.773987,107.809258 282.891815,105.796532 282.354553,104.144096 
	C278.490662,92.259781 274.844055,80.310867 267.020386,70.179680 
	C262.745026,64.643303 257.773560,60.662781 250.458206,60.373055 
	C249.261200,60.325642 247.702225,60.675751 247.031891,58.946957 
	C248.166260,56.620060 250.700104,58.439747 252.211914,57.249237 
	C242.409393,49.336155 221.171829,50.582859 219.726349,62.440769 
	C221.842850,62.608368 223.533478,61.521038 225.312576,60.797222 
	C228.517975,59.493145 231.493591,59.700493 234.942932,60.764252 
	C251.381332,65.833771 261.146545,77.978104 268.722107,92.259216 
	C273.238220,100.772766 276.950043,109.729622 280.742950,118.607025 
	C292.282501,145.615524 310.008514,166.009476 339.138275,174.834488 
	C346.465027,177.054169 353.265961,180.779190 359.111389,185.928864 
	C360.147156,186.841370 361.806976,187.568039 360.613800,189.965439 
	C356.741974,187.389694 353.018311,184.751785 349.139404,182.366257 
	C341.557526,177.703339 332.726807,175.882584 324.835052,171.942734 
	C307.891541,163.483948 293.437897,151.376587 278.515472,139.964737 
	C276.798767,138.651917 275.369293,136.651215 272.352142,136.817612 
	C272.900360,138.531418 273.107880,139.877548 273.724548,140.998627 
	C279.020630,150.626526 284.330872,160.226517 290.941620,169.077332 
	C297.582214,177.968063 306.141052,185.213577 312.306519,194.479477 
	C313.436615,196.177917 315.363770,197.441452 315.622772,200.616577 
	C299.018463,187.046570 285.746948,171.394745 272.537476,155.547638 
	C276.742554,168.668808 281.826813,181.280319 290.173798,192.221786 
	C295.667633,199.423203 302.244934,205.720215 310.525574,209.593704 
	C322.031158,214.975723 334.751740,217.726562 344.990326,226.275345 
	C345.448914,224.313110 344.584839,223.401978 343.975311,222.502548 
	C338.908569,215.025894 332.929138,208.321533 325.951111,201.548508 
M338.547943,302.045471 
	C341.572754,299.192322 344.633484,296.376160 347.616394,293.479828 
	C362.860901,278.677734 362.495758,260.336884 355.050415,244.415924 
	C351.252106,236.293762 345.495422,229.595566 336.979980,224.368942 
	C338.000305,226.994919 338.550934,228.745331 339.339600,230.380981 
	C341.957794,235.811035 339.787445,241.559036 340.503998,247.012268 
	C342.555817,262.626831 339.135590,277.087830 332.811523,291.124481 
	C332.204895,292.470917 331.615204,294.263763 328.541473,293.796844 
	C334.481201,282.762207 336.839996,271.441254 335.070465,258.693878 
	C332.016357,261.792084 330.798309,264.611206 330.079681,268.291992 
	C328.311584,277.347992 328.828705,287.187836 321.268372,294.512207 
	C314.244507,301.316803 305.981903,306.576660 299.095123,313.608154 
	C292.677765,320.160370 286.561401,326.591125 283.944794,335.813507 
	C289.421906,328.907990 296.383087,323.888031 303.948853,319.909943 
	C311.563019,315.906464 316.127777,308.390930 323.541168,302.968689 
	C323.237396,307.504791 319.430145,308.910767 318.769592,313.121155 
	C326.463318,311.089966 332.261963,306.848358 338.547943,302.045471 
M401.457245,282.937073 
	C404.394714,277.905396 406.885529,272.702118 407.808929,267.020294 
	C406.493805,265.438324 404.319153,267.119263 402.851746,264.786011 
	C406.538391,264.302551 409.102325,261.369019 413.425537,262.228455 
	C412.902222,257.321838 411.099579,253.707153 407.439545,250.059372 
	C401.723022,258.323547 391.630890,261.388916 386.945557,270.485718 
	C385.066254,274.134552 381.222046,276.480774 377.442871,278.363586 
	C373.858246,280.149445 370.131836,281.610687 366.160156,282.263885 
	C362.171783,282.919800 360.308044,284.457642 361.708588,289.011078 
	C362.711975,292.273224 363.939972,295.714600 363.429871,299.267578 
	C362.898926,302.965790 364.585663,303.867737 367.946472,303.746735 
	C382.802643,303.211914 393.081146,295.294220 401.457245,282.937073 
M381.459961,261.822937 
	C390.500977,259.748932 395.290741,253.662735 398.137695,245.162781 
	C400.340363,238.586472 401.604309,231.872375 401.231506,225.120346 
	C400.792450,217.168091 398.419739,209.627182 392.065063,203.779709 
	C391.365570,204.570679 390.895203,204.878464 390.771759,205.290207 
	C390.537598,206.071548 390.367126,206.918716 390.404877,207.727585 
	C390.806580,216.333786 387.990662,223.983658 383.938812,231.429031 
	C378.482697,241.454712 373.683441,251.796875 371.240845,263.062775 
	C374.302612,261.620270 377.816284,264.622437 381.459961,261.822937 
M396.054047,191.388046 
	C394.602325,194.682495 390.970734,197.746262 394.346497,201.691086 
	C406.349030,215.716995 406.344269,231.233795 400.309509,247.574112 
	C399.891052,248.707153 398.691956,249.869598 400.433350,251.349365 
	C402.686005,249.282562 405.006348,247.249634 407.220123,245.106628 
	C419.852570,232.877731 422.444855,211.627274 412.774841,198.083710 
	C408.909302,192.669739 403.975281,188.951080 396.054047,191.388046 
M348.728607,312.219788 
	C352.993256,304.862823 356.613953,297.308868 357.007416,288.137207 
	C354.571106,288.862213 354.066833,290.195221 353.273254,291.212158 
	C343.378967,303.891357 330.846497,312.919800 315.469299,317.592529 
	C309.936981,319.273651 307.762573,323.212585 305.572693,327.679260 
	C314.369751,332.630707 330.354218,331.091156 337.713531,324.663452 
	C341.724304,321.160400 345.384644,317.299805 348.728607,312.219788 
M412.453064,244.862015 
	C411.040924,246.152130 409.607117,247.686935 410.983521,249.565155 
	C413.415680,252.884186 414.148865,257.285645 417.534393,259.882538 
	C418.023865,260.257996 419.665039,259.344208 420.660156,258.814514 
	C428.584564,254.596680 433.059723,247.682098 434.403503,239.118317 
	C435.701965,230.843399 433.769653,223.103775 426.967285,215.598145 
	C423.723083,226.642807 418.400909,235.535553 412.453064,244.862015 
M201.877686,46.543449 
	C205.678360,40.083172 211.235123,35.727303 218.337326,33.589359 
	C224.771347,31.652552 230.527359,27.982700 237.267990,26.772266 
	C231.814209,24.560970 226.123062,24.116631 220.734909,22.691483 
	C206.903168,19.033035 191.764191,36.311382 191.785614,47.970676 
	C191.794769,52.953762 192.326187,57.935810 197.614914,62.135918 
	C198.055862,56.103523 199.096603,51.436546 201.877686,46.543449 
M261.856964,95.073586 
	C261.264832,94.430069 261.138672,93.172112 259.555573,93.521950 
	C261.567261,101.054382 263.729492,108.498215 265.502228,116.033661 
	C266.560181,120.530762 265.892029,126.034225 269.351318,129.186234 
	C276.240875,135.463867 283.952972,140.838745 291.325287,146.586548 
	C287.147369,137.434921 282.634521,128.817017 277.991547,120.285751 
	C273.336029,111.731392 267.507355,103.815498 261.856964,95.073586 
M227.577469,43.115185 
	C239.143372,43.385281 248.588745,49.168850 258.110870,54.963379 
	C252.910645,46.370583 245.531433,40.802265 236.410660,36.867470 
	C223.156540,31.149509 211.499390,38.138775 205.327713,46.707752 
	C203.259476,49.579357 201.184113,52.896793 202.439423,58.493347 
	C208.164276,47.992271 216.688919,44.244080 227.577469,43.115185 
M291.902588,353.448669 
	C290.743042,347.869934 289.583527,342.291168 288.394348,336.569946 
	C275.464630,351.905457 287.058624,371.282013 301.037140,375.209106 
	C297.025299,368.182526 294.135956,361.371521 291.902588,353.448669 
M243.436813,80.526802 
	C247.290070,84.646835 248.466782,89.603218 248.658676,95.142662 
	C249.041046,106.181076 253.401169,115.468323 262.326233,123.705956 
	C259.738190,112.963692 257.878418,103.170296 254.918182,93.721672 
	C253.093231,87.896744 250.258621,82.019234 243.436813,80.526802 
M357.600586,84.841911 
	C349.866730,67.940422 334.963318,52.299702 323.924652,50.159882 
	C338.048920,61.980682 349.108917,76.364212 358.924835,91.877960 
	C359.814392,89.333862 358.405640,87.530449 357.600586,84.841911 
M298.732178,296.537048 
	C299.446838,299.732208 300.161499,302.927338 301.094452,307.098358 
	C309.122772,299.140625 313.202515,290.207428 316.712708,279.835693 
	C312.669647,282.188477 309.321014,283.967590 306.135925,285.836700 
	C302.552521,287.939575 299.237213,291.035370 298.732178,296.537048 
M312.586731,49.853188 
	C322.623535,56.653248 332.049347,64.219223 341.696625,73.650429 
	C331.263641,57.463509 304.670288,37.824623 293.713531,38.165390 
	C300.149384,42.147312 306.063110,45.806194 312.586731,49.853188 
M373.463867,266.909424 
	C369.169189,267.208618 366.369110,269.118164 365.865570,273.783295 
	C370.537994,274.506744 374.001221,270.522552 379.297241,270.636230 
	C375.054321,275.751495 368.929901,275.291840 364.153870,278.651276 
	C374.617676,278.356537 385.017426,271.737946 386.221252,264.877136 
	C381.866791,263.251495 378.313141,266.718109 373.463867,266.909424 
M266.575134,96.945267 
	C267.936890,99.193680 269.298645,101.442093 271.361267,104.847717 
	C263.764557,83.610382 250.756317,70.211357 235.564636,73.102669 
	C249.762207,76.880074 259.367126,84.889900 266.575134,96.945267 
M303.144653,348.742462 
	C300.076599,343.350189 300.305237,336.531891 295.270050,332.272217 
	C297.014038,330.529388 298.643402,332.989319 299.802582,331.311310 
	C300.228485,330.531158 300.362366,329.696716 299.794495,328.981232 
	C297.524841,326.121521 295.662354,328.194641 293.998962,329.679871 
	C291.936676,331.521240 290.442017,333.719360 292.235626,336.616272 
	C292.363312,336.822510 292.848724,336.973175 293.106323,336.907745 
	C296.226807,336.114990 296.103760,338.840851 296.828918,340.446442 
	C298.645996,344.469604 300.833008,348.197235 304.291931,351.073975 
	C304.011078,350.477386 303.730194,349.880798 303.144653,348.742462 
M294.929047,224.713898 
	C291.927734,220.587646 286.160187,220.397308 283.164185,216.170700 
	C283.265259,218.437347 286.145477,219.136002 285.955017,221.500137 
	C283.408020,221.773880 282.163849,219.222748 279.456329,219.349930 
	C281.504608,222.274261 283.809570,224.293350 286.851715,225.365463 
	C289.476471,226.290497 292.169312,228.740051 294.929047,224.713898 
M323.528503,280.238525 
	C323.165802,282.227142 322.803101,284.215790 322.440430,286.204407 
	C325.737549,281.454926 325.391724,275.933228 326.713348,270.494934 
	C319.692169,274.308838 319.580688,281.275635 317.669983,287.320160 
	C320.468262,284.264099 321.256042,280.117218 323.215302,276.414703 
	C324.401581,277.670044 323.950073,278.639404 323.528503,280.238525 
M348.788391,317.206726 
	C347.718872,319.278961 345.298492,320.546356 344.765625,323.358154 
	C351.789795,320.969177 356.967407,313.298889 355.253937,308.332397 
	C355.094452,308.372589 354.856873,308.359009 354.786896,308.460754 
	C352.917755,311.178833 351.065857,313.908783 348.788391,317.206726 
M389.371490,189.293625 
	C394.619415,187.376114 395.130371,185.061661 391.468353,179.795364 
	C386.946259,181.774445 385.534882,186.742508 389.371490,189.293625 
M278.963989,157.519394 
	C274.942688,149.606262 270.921387,141.693146 266.900085,133.780014 
	C268.072784,143.051605 272.811310,150.466614 278.963989,157.519394 
M214.382889,14.847979 
	C211.721924,16.296997 208.320114,16.420118 205.538681,20.106386 
	C212.956970,18.816887 218.747879,16.183455 225.808640,13.570461 
	C221.066681,11.701756 218.199631,14.003372 214.382889,14.847979 
M309.747070,336.050385 
	C312.715790,336.071503 315.693146,336.133209 319.658173,334.570343 
	C314.400757,333.341553 310.531281,332.500275 306.700287,331.509918 
	C305.213715,331.125641 303.706177,330.300903 303.028229,332.440094 
	C302.377502,334.493347 304.013733,335.044067 305.450806,335.474182 
	C306.553436,335.804169 307.742554,335.845337 309.747070,336.050385 
M357.719604,299.728912 
	C357.442688,300.954376 357.511536,302.166595 358.965668,302.428223 
	C360.511444,302.706360 360.728546,301.322144 361.055878,300.245026 
	C361.833588,297.686127 361.154358,295.253265 360.625244,292.399841 
	C358.707916,294.575195 358.766998,296.992706 357.719604,299.728912 
M294.457520,307.014343 
	C293.385193,308.947601 292.664886,310.874542 294.392578,312.907745 
	C296.702271,312.125366 297.836426,310.687286 297.858887,308.463867 
	C297.880829,306.291656 297.102600,305.290497 294.457520,307.014343 
M231.311508,64.028023 
	C229.654892,64.278084 227.791168,63.600941 225.589371,65.358444 
	C229.976974,65.896194 233.572769,66.336891 237.760956,66.850197 
	C236.006073,64.471123 234.035522,64.299141 231.311508,64.028023 
M388.163971,196.038498 
	C393.053711,197.671463 391.072723,194.019989 391.700134,191.931091 
	C388.288177,192.660721 388.288177,192.660721 388.163971,196.038498 
z"/>
<path fill="#000000" opacity="1.000000" stroke="none" 
	d="
M100.401825,251.621124 
	C95.072479,251.325745 92.982819,254.391800 91.911018,258.675140 
	C91.128143,261.803802 92.288971,263.629761 95.242577,264.928894 
	C102.717476,268.216736 110.480293,268.049805 118.323097,267.284149 
	C120.616043,267.060272 122.884888,266.377960 125.270134,267.144714 
	C117.796509,272.496887 96.464424,272.869446 88.307854,263.165344 
	C87.759926,270.007843 88.816414,276.288757 87.503189,282.417694 
	C86.743103,285.965088 86.552956,289.634094 85.802437,293.184113 
	C84.186470,300.827820 87.822380,308.008698 95.140259,310.985168 
	C103.242737,314.280762 111.821449,315.245575 120.440353,316.031494 
	C144.686874,318.242462 168.859329,316.842773 193.008835,314.560028 
	C198.352386,314.054962 203.661285,313.183502 209.087097,313.187469 
	C203.318832,317.596710 196.309509,316.045929 189.921158,317.236115 
	C183.235809,318.481659 176.373062,319.048492 169.565826,319.289429 
	C162.758087,319.530396 156.057983,320.247803 149.414047,321.196014 
	C149.357483,321.875153 149.186417,322.342896 149.326614,322.471558 
	C159.921432,332.197266 163.918915,345.317291 167.595016,358.497253 
	C172.305527,375.385895 178.931976,391.548981 185.346680,407.815033 
	C191.249344,422.782684 194.479980,438.369476 194.723221,454.512939 
	C194.738174,455.505707 194.731644,456.549042 193.294144,457.087524 
	C190.886215,453.539093 192.239136,449.325653 191.842407,445.600403 
	C190.093170,429.175323 185.248550,413.723999 178.601639,398.784698 
	C170.041885,379.546143 165.660339,358.862457 157.733078,339.426910 
	C153.571045,329.222748 146.400818,322.726074 135.029816,320.611481 
	C128.885056,319.468811 122.760826,320.010040 116.686623,319.040405 
	C110.784592,318.098328 104.824448,317.553162 99.125183,315.562134 
	C85.116295,310.668182 80.502296,304.298889 83.277313,290.029022 
	C86.059402,275.722809 85.140160,261.420197 84.663788,247.201187 
	C83.892540,224.180466 89.173141,203.385086 102.935898,184.839050 
	C103.804108,183.669098 105.088394,182.673889 104.880913,180.636185 
	C102.314522,178.591217 97.088402,178.908981 97.421844,173.583694 
	C97.703575,173.422333 98.049393,173.070404 98.259262,173.138351 
	C103.545677,174.850052 106.342552,172.896286 107.100037,167.448639 
	C107.553825,164.185104 108.748093,161.084564 108.300095,157.634964 
	C107.312599,150.031067 109.756851,142.795639 111.242348,135.483078 
	C111.557571,133.931351 112.460297,132.225525 113.617287,131.161499 
	C122.969276,122.560844 127.958710,110.791145 135.705933,101.037933 
	C137.155258,99.213333 138.435684,97.253548 139.903137,95.444641 
	C142.105042,92.730400 144.823196,90.336922 146.544174,87.357826 
	C148.312317,84.297081 145.120285,80.534264 147.263535,76.976303 
	C141.435165,79.303360 137.602203,83.505356 134.959152,88.615410 
	C132.414093,93.535995 130.554260,98.810997 128.034836,104.779625 
	C126.202751,100.426109 127.916946,97.249725 129.044998,94.291954 
	C130.280762,91.051758 130.428726,88.071716 130.067795,84.627556 
	C128.421844,68.921700 142.090027,53.740993 159.078598,54.007515 
	C159.617477,54.015965 160.148026,54.556267 162.047760,55.595524 
	C144.089844,57.909229 133.820221,66.540306 132.301483,83.381172 
	C132.813461,83.887939 133.325439,84.394714 133.837418,84.901482 
	C136.017593,82.563324 137.997665,79.989349 140.418671,77.934998 
	C145.834641,73.339226 151.956635,69.672699 157.003433,64.517372 
	C160.248138,61.202904 164.709167,59.265549 169.526871,58.793209 
	C173.242676,58.428902 174.849182,56.677143 174.075363,52.827076 
	C173.788147,51.398018 173.696686,49.678482 174.226471,48.381664 
	C176.096176,43.804920 174.281509,41.283340 170.156525,39.417324 
	C165.717651,37.409321 162.192307,38.371735 158.867081,41.727081 
	C156.490707,44.124992 156.291733,47.736137 153.932190,50.369217 
	C152.749191,46.010254 154.959473,40.637695 158.836731,37.864857 
	C163.048904,34.852501 168.211395,34.686611 172.836914,37.950439 
	C175.174591,39.599941 177.180939,40.726883 179.612503,38.604408 
	C180.353119,49.907047 179.394852,61.613136 193.917847,65.710724 
	C189.235046,66.342247 185.293640,65.618134 181.532242,63.974518 
	C172.924896,60.213371 166.563904,60.882065 159.988968,66.706818 
	C167.730133,66.082581 175.233917,60.653065 182.777496,67.367477 
	C176.291733,70.912857 170.043274,73.964767 164.168839,77.618088 
	C153.119781,84.489502 144.212860,93.615707 137.049759,104.498566 
	C132.746674,111.036232 128.194977,117.411385 123.702065,123.822464 
	C122.007530,126.240456 121.794411,127.636963 125.224655,128.861420 
	C133.853271,131.941467 135.247131,134.785797 134.052063,145.495712 
	C129.737778,142.315659 124.589241,141.655594 120.072090,139.383957 
	C116.163467,137.418350 113.659821,138.684509 112.632057,142.860718 
	C111.555862,147.233719 110.726524,151.699203 111.988533,156.122803 
	C112.877670,159.239441 111.096352,161.613495 110.393532,164.268768 
	C108.584129,171.104752 109.794777,172.777496 116.722549,172.495514 
	C118.540176,172.421539 120.367310,172.386658 122.168678,172.162140 
	C123.964539,171.938293 124.942665,169.745316 128.113907,170.063019 
	C125.171425,174.303467 121.621613,177.133408 118.191383,179.956619 
	C114.609001,182.905075 110.708275,185.466751 106.947113,188.197205 
	C106.740280,190.650070 110.613808,192.294098 108.059265,195.003830 
	C105.771332,197.430801 103.398186,195.018799 101.080376,195.128265 
	C99.387413,197.606369 101.127739,200.436249 100.251320,202.772125 
	C98.483650,203.599670 98.112335,200.795807 95.461700,202.554794 
	C87.399117,218.931961 86.558357,237.337097 88.308762,257.527618 
	C91.266609,252.986267 90.608810,249.109879 90.570908,245.527573 
	C90.526398,241.320816 91.522888,237.581589 93.881134,234.238815 
	C95.818687,231.492310 98.380135,229.868164 102.024063,230.934036 
	C108.353722,232.785477 109.727814,231.992752 111.391472,225.730362 
	C111.638489,224.800522 111.790535,223.845444 112.115082,222.283096 
	C114.481247,224.739075 113.452896,227.048981 113.208107,229.152573 
	C113.033089,230.656586 112.395271,232.154816 114.127296,233.125641 
	C121.902763,237.483871 126.766212,244.840393 132.716324,251.084030 
	C135.560059,254.068039 138.072937,257.455078 142.435852,258.618195 
	C144.122345,259.067810 145.175674,260.618073 144.665863,262.555969 
	C144.076050,264.797852 142.270630,264.362549 140.583435,264.236481 
	C136.742615,263.949463 134.287903,260.877899 130.916901,259.525909 
	C122.807007,256.273376 114.772285,253.093903 105.816414,254.387665 
	C103.266869,254.755966 102.649239,252.175232 100.401825,251.621124 
M131.023407,253.270126 
	C127.940353,249.792603 125.072533,246.089401 121.721268,242.893082 
	C117.252518,238.630951 113.130753,233.159546 105.515572,235.746613 
	C104.396927,236.126633 103.153770,235.639862 102.267624,234.832565 
	C99.562286,232.367920 97.811928,233.987396 96.151749,236.156403 
	C94.356094,238.502457 93.953522,241.302094 93.563179,244.108078 
	C93.328758,245.793198 93.055588,247.633850 94.918205,248.481491 
	C96.688019,249.286865 97.987228,248.156937 99.209480,246.851379 
	C100.816093,245.135284 102.674713,243.458313 105.278809,244.558472 
	C111.935020,247.370529 119.277809,248.627975 125.058876,253.462280 
	C126.555679,254.713943 128.415649,255.828888 130.283112,256.271973 
	C133.300537,256.987915 132.276337,255.199432 131.023407,253.270126 
M154.654755,77.982529 
	C153.627411,78.985023 152.605301,79.989883 152.861374,82.315567 
	C158.237686,77.239212 164.669250,74.544762 169.758057,69.867851 
	C163.918457,70.595963 158.884308,72.813843 154.654755,77.982529 
z"/>
<path fill="#000000" opacity="1.000000" stroke="none" 
	d="
M223.337997,155.631195 
	C218.031113,151.420578 213.116074,147.373016 206.860779,145.181137 
	C198.226318,142.155579 189.476456,143.312119 180.782181,143.947296 
	C174.710083,144.390884 168.469818,143.615021 162.560730,146.023285 
	C160.744171,146.763641 158.238266,145.936798 158.204483,143.931458 
	C158.152069,140.820770 157.811050,137.323898 161.078873,134.999405 
	C165.770111,131.662384 170.761536,131.227478 176.455460,131.438095 
	C185.990952,131.790787 195.207458,133.510071 204.483383,135.365891 
	C214.710831,137.412079 220.807678,144.896576 227.215179,152.005386 
	C229.952393,155.042175 231.407120,159.054733 235.251465,161.339798 
	C237.465363,162.655731 237.127899,165.671509 237.440460,168.523560 
	C233.228943,167.602539 229.921799,166.853271 229.401535,161.792603 
	C229.102463,158.883759 225.214310,158.216736 223.337997,155.631195 
z"/>
<path fill="#000000" opacity="1.000000" stroke="none" 
	d="
M215.262268,441.259033 
	C211.706955,447.823944 210.268326,454.878571 207.015442,462.160248 
	C204.851089,447.967773 223.235199,415.942230 247.895493,402.812286 
	C276.238281,387.721649 307.535309,392.987579 324.846741,408.820801 
	C276.924561,384.366211 241.635681,397.901978 215.262268,441.259033 
z"/>
<path fill="#000000" opacity="1.000000" stroke="none" 
	d="
M189.218018,181.833618 
	C197.312561,183.848282 205.304306,182.926117 214.309143,184.127579 
	C203.827591,189.132538 194.652985,191.797653 184.135147,188.394211 
	C177.738571,186.324387 170.884430,185.702637 165.249954,181.553055 
	C163.952789,180.597763 162.019638,179.897629 162.509964,177.825851 
	C163.108353,175.297485 165.190323,176.868042 166.636597,176.563995 
	C169.847977,175.888916 172.448608,177.347610 175.232819,178.444839 
	C179.586914,180.160721 184.140671,181.185349 189.218018,181.833618 
z"/>
<path fill="#000000" opacity="1.000000" stroke="none" 
	d="
M10.024206,34.165684 
	C10.199361,23.968428 11.391114,22.804766 21.061882,22.805670 
	C28.548599,22.806368 36.035664,22.731272 43.521782,22.790365 
	C45.217739,22.803753 47.267181,22.106699 48.417324,24.317774 
	C47.330128,26.781286 45.082230,26.071886 43.255226,26.089918 
	C35.602970,26.165442 27.949242,26.073923 20.296326,26.106983 
	C14.329353,26.132761 13.433515,27.038671 13.395702,33.137726 
	C13.349290,40.623974 13.429237,48.111092 13.364611,55.597057 
	C13.351510,57.114586 14.213844,58.990463 11.562734,60.324978 
	C8.866254,56.309982 10.280823,51.793179 10.054456,47.614586 
	C9.820832,43.302032 10.016879,38.966202 10.024206,34.165684 
z"/>
<path fill="#000000" opacity="1.000000" stroke="none" 
	d="
M449.121582,437.998535 
	C449.100128,442.658630 449.181396,446.823608 449.042755,450.981232 
	C448.917297,454.742065 447.140594,457.612183 443.181091,457.850983 
	C432.880310,458.472076 422.559387,458.356140 412.249023,457.890472 
	C411.700012,457.865692 411.176910,457.267548 410.500397,456.848846 
	C411.484955,454.352142 413.510620,454.898865 415.160919,454.887177 
	C423.318298,454.829315 431.479065,454.730591 439.632965,454.906952 
	C444.174530,455.005188 445.875244,453.117004 445.748627,448.635986 
	C445.537079,441.150146 445.654114,433.653442 445.727844,426.162262 
	C445.744965,424.423065 445.119080,422.493683 447.612152,419.989349 
	C450.144836,426.110077 448.642365,431.953247 449.121582,437.998535 
z"/>
<path fill="#000000" opacity="1.000000" stroke="none" 
	d="
M419.139648,22.751850 
	C426.780792,22.741053 433.943970,22.665005 441.105591,22.739193 
	C446.974426,22.799990 449.053467,24.750381 449.129730,30.451849 
	C449.241058,38.778534 449.175140,47.108227 449.110840,55.436066 
	C449.098663,57.010719 449.475769,58.858246 447.377289,59.865608 
	C445.066437,59.008533 445.765778,56.898659 445.745880,55.270470 
	C445.652405,47.609222 445.528168,39.941433 445.751648,32.285809 
	C445.886505,27.667225 443.926727,26.072033 439.501129,26.162479 
	C431.509491,26.325804 423.511047,26.210211 415.516327,26.125298 
	C413.830994,26.107397 411.739624,26.773144 410.782776,24.161829 
	C413.043427,21.655930 416.056122,23.185350 419.139648,22.751850 
z"/>
<path fill="#000000" opacity="1.000000" stroke="none" 
	d="
M22.119446,458.110901 
	C19.975721,458.073883 18.308853,458.108124 16.652462,457.992371 
	C12.494621,457.701843 10.183504,455.348541 10.109791,451.265930 
	C9.950727,442.456238 9.994392,433.642273 10.028875,424.830353 
	C10.034341,423.433807 9.857422,421.743500 11.897175,421.223389 
	C13.971959,422.380249 13.296562,424.407562 13.316586,426.098938 
	C13.399257,433.081635 13.334353,440.065918 13.372905,447.049347 
	C13.412750,454.267120 14.094357,454.920502 21.493185,454.921783 
	C28.643173,454.923004 35.793404,454.845856 42.942989,454.890259 
	C44.677513,454.901001 46.642948,454.387939 48.439262,456.769989 
	C44.185738,459.217651 39.725983,457.830627 35.567310,458.076843 
	C31.259609,458.331970 26.924305,458.121002 22.119446,458.110901 
z"/>
<path fill="#000000" opacity="1.000000" stroke="none" 
	d="
M287.995789,253.871307 
	C289.680084,250.438995 289.976929,246.794937 292.337036,243.987640 
	C294.639618,248.246246 291.636749,256.564484 286.936707,259.133362 
	C286.064606,259.609985 285.081848,259.880005 284.188477,260.322693 
	C282.678589,261.070862 280.862732,261.929504 281.679138,263.962280 
	C282.391144,265.735138 284.123840,265.066925 285.623047,264.754059 
	C291.351471,263.558563 292.765015,263.880524 295.966095,267.593018 
	C290.851044,266.151093 285.773285,268.125092 280.687836,267.051849 
	C279.180267,266.733704 277.922668,265.680603 277.733521,264.012512 
	C277.453125,261.539917 278.918396,259.866577 280.880127,258.781311 
	C283.321838,257.430450 286.295410,256.937195 287.995789,253.871307 
z"/>
<path fill="#000000" opacity="1.000000" stroke="none" 
	d="
M371.253906,337.812592 
	C368.368835,347.640656 367.874847,348.604797 363.690155,351.420898 
	C369.503540,340.076080 371.136505,328.141968 368.766602,315.025513 
	C372.666321,319.279755 373.020172,323.291290 371.253906,337.812592 
z"/>
<path fill="#000000" opacity="1.000000" stroke="none" 
	d="
M104.646011,219.323654 
	C101.961037,214.983521 97.542824,211.711380 99.174789,205.873230 
	C104.700554,208.510437 109.578590,216.159973 108.259605,219.950470 
	C107.931580,220.893173 107.549393,221.814636 106.508423,222.220078 
	C104.869156,222.085159 105.047607,220.705811 104.646011,219.323654 
z"/>
<path fill="#000000" opacity="1.000000" stroke="none" 
	d="
M119.853912,211.328049 
	C118.008926,210.383011 116.598808,209.773819 115.152473,211.519089 
	C113.939049,212.983307 112.459396,212.325836 111.204704,211.362442 
	C110.363373,210.716446 109.921387,209.794937 110.387611,208.752365 
	C111.001053,207.380585 112.293396,207.030807 113.648651,206.890381 
	C117.573151,206.483704 124.370949,210.133560 126.179749,213.703949 
	C126.917404,215.160019 127.901711,217.008606 125.592422,217.831711 
	C123.688950,218.510162 122.419319,217.138580 122.040321,215.355759 
	C121.724327,213.869247 121.560036,212.421204 119.853912,211.328049 
z"/>
<path fill="#000000" opacity="1.000000" stroke="none" 
	d="
M142.007111,212.210190 
	C144.201508,216.091827 142.124298,219.093124 139.692886,221.443771 
	C137.080444,223.969498 133.670624,225.165085 129.317322,223.371048 
	C131.936584,221.001419 135.358994,222.049164 137.592056,219.850006 
	C139.849960,217.626328 140.078827,214.586685 142.007111,212.210190 
z"/>
<path fill="#000000" opacity="1.000000" stroke="none" 
	d="
M300.894897,267.946899 
	C305.957092,268.430023 309.552673,265.605896 313.687134,262.864502 
	C312.520416,268.613281 303.591736,272.629974 299.864380,269.866425 
	C298.579254,268.913574 299.328094,268.249542 300.894897,267.946899 
z"/>
<path fill="#000000" opacity="1.000000" stroke="none" 
	d="
M226.773026,308.024597 
	C227.489822,313.247711 226.115341,313.979309 218.973953,312.259583 
	C220.757874,309.288757 221.638535,305.436920 226.773026,308.024597 
z"/>
<path fill="#000000" opacity="1.000000" stroke="none" 
	d="
M135.953445,150.245026 
	C136.241379,155.741455 137.881424,161.228928 132.594254,165.137009 
	C135.029999,159.721512 133.938065,154.027496 133.714645,148.540222 
	C135.439850,148.189026 135.403671,149.301224 135.953445,150.245026 
z"/>
<path fill="#000000" opacity="1.000000" stroke="none" 
	d="
M149.523621,116.661102 
	C151.381424,114.512238 153.126740,114.587090 154.780563,116.262070 
	C155.643661,117.136215 155.789017,118.292870 155.174423,119.422997 
	C154.374878,120.893211 153.055847,121.530228 151.487366,121.109810 
	C149.402847,120.551071 148.645340,119.096603 149.523621,116.661102 
z"/>
<path fill="#000000" opacity="1.000000" stroke="none" 
	d="
M201.635666,227.801727 
	C200.953018,230.170044 199.590134,231.195862 197.498169,230.757050 
	C196.006790,230.444183 195.409821,229.231964 195.483017,227.763214 
	C195.554596,226.326523 196.172226,225.178879 197.686020,224.870270 
	C199.788071,224.441681 201.235672,225.171509 201.635666,227.801727 
z"/>
<path fill="#000000" opacity="1.000000" stroke="none" 
	d="
M377.724670,167.247375 
	C372.182281,152.108627 365.186798,138.206253 355.423645,125.757210 
	C345.736328,113.404907 333.464661,103.877060 319.781952,94.166084 
	C338.916473,93.270676 385.885956,157.340088 381.328583,176.432571 
	C379.001190,173.722641 379.022400,170.409348 377.724670,167.247375 
z"/>
<path fill="#000000" opacity="1.000000" stroke="none" 
	d="
M313.509277,147.547379 
	C304.978607,142.229065 297.242340,136.593277 291.841278,128.010651 
	C294.016846,127.117821 294.760162,128.214157 295.464844,129.038452 
	C307.374725,142.969513 323.347870,150.244827 340.052887,156.327240 
	C346.470520,158.663956 352.764038,161.273560 358.635498,164.799362 
	C359.453918,165.290817 360.436676,165.757675 360.480072,168.463791 
	C345.213776,159.812347 328.429047,156.414261 313.509277,147.547379 
z"/>
<path fill="#000000" opacity="1.000000" stroke="none" 
	d="
M393.006622,296.992157 
	C396.844543,295.712128 399.056396,292.078979 402.599426,290.196075 
	C402.821198,295.312775 397.200287,299.674194 393.136597,297.322754 
	C392.990540,297.012024 393.000793,296.999115 393.006622,296.992157 
z"/>
</svg>